<?xml version="1.0" encoding="UTF-8"?>
<svg id="Layer_1" data-name="Layer 1" xmlns="http://www.w3.org/2000/svg" viewBox="0 0 1024 1024">
  <path d="M162.24,909H22.98c-15.85,0-26.93-15.68-21.64-30.62L260.93,144.9c6.34-17.92,23.28-29.89,42.29-29.89h139.26c15.85,0,26.93,15.68,21.64,30.62L204.53,879.1c-6.34,17.92-23.28,29.89-42.29,29.89Z" style="fill: #fa4242;"/>
  <path d="M720.78,909h-139.26c-15.85,0-26.93-15.68-21.64-30.62L819.47,144.9c6.34-17.92,23.28-29.89,42.29-29.89h139.26c15.85,0,26.93,15.68,21.64,30.62l-259.6,733.48c-6.34,17.92-23.28,29.89-42.29,29.89Z" style="fill: #fa4242;"/>
</svg>